<svg xmlns="http://www.w3.org/2000/svg" viewBox="0 0 433.14 426.96"><title>figure-icon</title><path d="M1032,522.1s1.9,2.8,6.7,4.5a42.37,42.37,0,0,0-3.3,5.9c-1.2,2.8-3.8,8.7-3.9,10.4s1.7,5.6,1.9,6.4-0.8,4.4-2.7,7.8-4.2,5.3-3.8,6.6,3.8,2.5,4.5,2.7-0.4,2.9-.6,3.9,1,2.1,1,2.1-1.4,1.5-1.2,2.1,1.2,1.7,1.3,2.4a16.64,16.64,0,0,1-.2,6.2c-0.6,2.3,1.8,4.4,2.7,4.7s8.4-.5,9.9.3,4.3,4.3,5.3,8.2,2.2,7.3,2.2,7.3-2.4,4-6.3,4.6-10.7,1.7-15.3,6.8-5.3,6.3-9.2,7.9-3.8-1.2-7.3,2.6-9.5,4.3-10.7,4.9-3,.7-9.7-2.1-7.3-3-11.1-3.7a55.1,55.1,0,0,1-11.8-3.2c-4.4-1.8-5.3,1.2-9.1-2.9s-3.6-5.2-5.1-5.5-1.7.1-2.6-4.6-1.6-17.2-2-19.6-1.6-2.9-1.6-2.9-0.9-3.8-2.1-4.3c0,0-1.1-4.6-2.4-4.3a2.82,2.82,0,0,0-1.8,1.2,2.33,2.33,0,0,0-1.9,2.4c0.1,2.1-.2,23.3,0,24.2s-2.5,1.4-2.6,3.4,1.3,3.2,1.7,6.1-0.4,13.3,1.5,16.1c0,0-9.5-1.5-15.2-3.5s-5.7-.7-7.1-2.8-2.5-12.3-2.2-16.7,0.3-12.1.5-13.8-0.9-3.5-1.9-3.3a1.81,1.81,0,0,0-1.6,2c0.1,1-.5,5.2-0.5,6.1s-1.4-7.6-1.8-9.9-0.8-3.2-2-3.5a1.75,1.75,0,0,0-2.2,1c0.1,0.4.1,5.4,0.6,9.2s0.7,7,.7,7-1.9-9.8-3-13.2-1.9-3.4-2.7-3-1.2,2.5-1.3,3.6,1.5,5.8,1.5,8.6a45.38,45.38,0,0,0,.4,5.6,66.74,66.74,0,0,1-2.3-8.1c-0.3-2.3-.8-3-2.1-2.9s-2,1.1-1.6,4.5,0.5,9.8,1.4,13.7-0.2,11.7-.1,15.2,2.6,8.5,2.6,8.5-1,18.9-1.4,28.8,0.8,8.2,6.8,12.1S926,686.2,932,686a167.76,167.76,0,0,0,27.8-2.7c11.9-2.3,20-2.9,25.5-4.5a27.24,27.24,0,0,1,14.6.2c3.5,1,11.9,1,19.1.4s9.9-1.4,14-3.1a15.91,15.91,0,0,1,8.4-.6s1.2,16.5,3.9,24.7,2.9,34.2,3.1,39.5-2.1,17.9-2.1,17.9-17.3,7.6-25.7,13-17.1,5.3-20,11.5-6.8,8.8-3.5,20.6,9.1,38.3,10.5,51.2,4.1,22,4.3,28.2,2.3,9.9,5.1,15.4,0.7,5.1.3,7.5-0.8,3.9-.5,5-7.8,3.1-14.3,5.8-8.4,2.8-9.3,4.4-1.3,3.4-1,4.2,0.1,2.7,1.4,2.6,53.2,0,60.8,0,11.9-.8,13-1.6a15,15,0,0,0,2.6-3.4s6.7,0.6,6-5.1-3.1-13.8-3.9-23.7,0.6-12.6-4.3-16.9-11.5-7.6-11.9-11.7,2.3-12.6,1.6-16.7-3.1-6.2-4.3-9.3-1.6-4.3.8-4.5,9.5-2.5,12.3-7.8,8.2-.8,21.8-3.3,29.4-6.4,31.1-9.1c0,0,24.7,20.8,34.3,27.1s12.1,7.1,18.9,16.5,18.7,14.8,23.3,17.3a76,76,0,0,1,23,20c9.1,11.5,10.5,10.1,25.1,16.3s15.8,5.6,20.8,9.5,12.7,9.5,18,11c0,0-3.1,2.6-1,4.9s2.9,2.6,6.4,2.6h16.3c3.8,0,13-2.6,15-4.8s4.4-2.6,6.8-3.1,5.1-2.1,5.5-8-1.6-10.7-3.3-11.4-5.5-1.6-4.5-3.6-1-6.7-4.9-9-4.8-6.5-6.2-10.3,0.3-4-8.8-5.9-32.7-25.2-44.6-33.4-21.8-11.9-28.8-14.8-7.5-6.7-10-11.9-6.3-5.9-9.5-6-15.9-20.2-22.8-25.7-3.3-9.9-5.8-14.3-7.1-14.8-11-25.8,2.2-6.3-8.8-18.4-20-17.3-20.6-25-12.3-28.9-13-39.2-4.3-25.7-8.9-30.3-14.4-20.9-17.7-32-7.6-15.4-10.9-16.7-4.9-.2-5.9-2.9-2.1-8-2.4-8.6a5.22,5.22,0,0,0-1.2-1.3l-0.4-3.9s7.4-6.1,10.3-20.1,3.1-20.4-6.2-29.4-21.7-12.5-29.6-10.7S1036.4,521.2,1032,522.1Z" transform="translate(-898.5 -512.34)" style="fill:#faaf1c"/></svg>