<?xml version="1.0" encoding="utf-8"?>
<!-- Generator: Adobe Illustrator 19.2.0, SVG Export Plug-In . SVG Version: 6.00 Build 0)  -->
<svg version="1.1" id="Capa_1" xmlns="http://www.w3.org/2000/svg" xmlns:xlink="http://www.w3.org/1999/xlink" x="0px" y="0px"
	 viewBox="0 0 867.9 741.8" style="enable-background:new 0 0 867.9 741.8;" xml:space="preserve">
<style type="text/css">
	.st0{fill:none;}
</style>
<g>
	<circle cx="440.4" cy="295.5" r="40.5"/>
	<path d="M593.5,242.4c-40.9-40.9-95.3-63.4-153.1-63.4s-112.2,22.5-153.1,63.4s-63.4,95.3-63.4,153.1s22.5,112.2,63.4,153.1
		c40.9,40.9,95.3,63.4,153.1,63.4s112.2-22.5,153.1-63.4c40.9-40.9,63.4-95.3,63.4-153.1S634.4,283.3,593.5,242.4z M399.9,495.5
		c0-22.4,18.1-40.5,40.5-40.5s40.5,18.1,40.5,40.5c0,22.4-18.1,40.5-40.5,40.5S399.9,517.9,399.9,495.5z M443,595.5
		c54-1.4,97.4-45.6,97.4-100c0-55.2-44.8-100-100-100s-100-44.8-100-100c0-52.6,40.6-95.7,92.2-99.7c0.2,0,6.8-0.3,7.7-0.3l0,0
		c110.5,0,200,89.5,200,200C640.4,505.1,552.3,594.1,443,595.5z"/>
</g>
<path id="SVGID_x5F_1_x5F_" class="st0" d="M493.4,634.2C361.6,663.5,231,580.3,201.7,448.5s53.9-262.4,185.7-291.7
	s262.4,53.9,291.7,185.7S625.2,604.9,493.4,634.2z"/>
<text><textPath  xlink:href="#SVGID_x5F_1_x5F_" startOffset="32.8023%">
<tspan  style="font-family:'AmaticSC-Bold'; font-size:150px; letter-spacing:150;">ВЕЛИКИЙ ПРЕДЕЛ</tspan></textPath>
</text>
</svg>
