<svg xmlns="http://www.w3.org/2000/svg" viewBox="0 0 713.64 602.25"><title>logo-white</title><circle cx="356.57" cy="285.75" r="40.5" style="fill:#fff"/><path d="M560.85,248.4a216.55,216.55,0,1,0,63.4,153.1A215.13,215.13,0,0,0,560.85,248.4ZM367.25,501.5a40.5,40.5,0,1,1,40.5,40.5A40.46,40.46,0,0,1,367.25,501.5Zm43.1,100a100,100,0,0,0-2.6-200A100,100,0,0,1,400,201.8c0.2,0,6.8-.3,7.7-0.3h0a199.94,199.94,0,0,1,200,200C607.75,511.1,519.65,600.1,410.35,601.5Z" transform="translate(-51.18 -15.75)" style="fill:#fff"/><path d="M166,454.32l-18.27,2.6-18.27,2.6q-9.92,1.58-30,5.23t-30,5.23l-0.89.14a32.37,32.37,0,0,1-7.23.39q-4.14-.25-4.75-4.1-1.65-10.37,4-17.5T77.29,440a32.06,32.06,0,0,1,14.49,1.34q7.83,2.4,12.16,6.72a35.26,35.26,0,0,1,12.87-15,49.28,49.28,0,0,1,19.42-7.27q5.19-.82,13.45,1.51,9.87,2.84,15,9.6a21.83,21.83,0,0,1,3.78,9.42l0.1,0.59Q169.69,453.73,166,454.32Zm-70.5-4a62.82,62.82,0,0,0-10.73-2.54,37.75,37.75,0,0,1-4.38-.82l-5.18.83a14,14,0,0,0-8.07,4.63q-3.63,3.92-3,8.07,0.33,2.08,4.92,1.34,9.78-1.56,17.43-3.08l16.4-2.91Q101.4,452.15,95.49,450.35Zm56.58-14.78a21.84,21.84,0,0,0-14.16-2.15,66.5,66.5,0,0,0-12.34,3.1,27.94,27.94,0,0,0-8.21,4.27,33.56,33.56,0,0,0-4.22,4,10.25,10.25,0,0,0-2.07,3.22l-0.26,1.25,0.85,5.33q16.92-3.45,48.92-8.54A17.2,17.2,0,0,0,152.07,435.58Z" transform="translate(-51.18 -15.75)" style="fill:#fff"/><path d="M163.58,387.76q-1,2.47-4.41,2.16l-86.8-7.8a48.4,48.4,0,0,0-7.7.21,36.15,36.15,0,0,1-7.71.36l-0.45,0a33.78,33.78,0,0,1-5-4.22,34,34,0,0,0-.1-5.58,30.2,30.2,0,0,1-.1-5.58,8.59,8.59,0,0,1,1.84-4.5,4,4,0,0,1,3.56-1.94q4.48,0.4,3.86,7.28l-0.19,2.09a13.06,13.06,0,0,0-.34,2.08,5.1,5.1,0,0,0,0,1.66q5.08,0.46,12.3.5l4.21,0.08L84.77,375q2.84,0.25,8.62,1.23l8.34,1.05-0.26-2.13a18,18,0,0,1-.45-5,4.27,4.27,0,0,1,1.54-2.87,3.92,3.92,0,0,1,3-1.08,5.07,5.07,0,0,1,3.11,1.41,3.41,3.41,0,0,1,1.17,2.89l-0.31,1.78-0.17,1.94a4,4,0,0,0,.76,3.23l46.16,4.15,0.3-8.41q0.77-8.52,4.65-8.17l0.6,0.05a6.64,6.64,0,0,1,2.62,3.55,16,16,0,0,1,1,4.76l-0.29,4.94-0.42,4.63A14.77,14.77,0,0,1,163.58,387.76Z" transform="translate(-51.18 -15.75)" style="fill:#fff"/><path d="M174.37,336.1A10.26,10.26,0,0,1,171,340a2,2,0,0,1-2,.22,1.77,1.77,0,0,1-1.22-1.89,8.41,8.41,0,0,0-1.83-6,22.13,22.13,0,0,0-4.4-3.88q-2.43-1.63-3.46-2.33-8.19-5.93-22.53-11.27-1.83-.68-5.66-2.43-3.55-1.64-5.52-2.38-5.34-2-15.85-5.58l-7.92-2.79q-14.72-5.16-24.7-8.88-1.4-.52-3.86-1.68t-2.8-1.93a2.83,2.83,0,0,1-.13-1.81,13,13,0,0,1,.33-1.32q0.07-.61.4-3.45A23.68,23.68,0,0,1,71.2,277a12.51,12.51,0,0,1,.93-2.06,24.64,24.64,0,0,0,3.14-5.63q2.11-4.58,2.31-5.14c0.14-.37.35-0.51,0.63-0.4a14,14,0,0,1,2.6.33,84.37,84.37,0,0,1,8.42,3.62l5,2.17q5.34,2,13.33,4.17,9.26,2.65,26.44,8.09,14.44,5.06,21.58,7.4l18.59,6,3.81,0.94q2.63,0.66,3.76,1.08a4.77,4.77,0,0,1,2,1.4,3.35,3.35,0,0,1,.78,2.21,6.42,6.42,0,0,1-.5,2.21,4.79,4.79,0,0,1-2.28,2.67,5,5,0,0,1-4.13-.1q-7.82-3.07-23.42-8.88-23.33-8.69-45.49-14.54-4.65-1.25-14.85-4.81T80,272.78l-4.15,11.58a11.29,11.29,0,0,0,2.81,1q2.87,0.91,3.43,1.12,6.13,2.45,20.47,7.79l8.15,3q4.27,1.43,7.41,2.68t5.24,2q4.31,1.77,12.74,4.9a198.55,198.55,0,0,1,21.18,9.33q5.22,2.75,8.49,4.92a27.58,27.58,0,0,1,5.82,5.21,12.45,12.45,0,0,1,3.14,7.89A8.32,8.32,0,0,1,174.37,336.1Z" transform="translate(-51.18 -15.75)" style="fill:#fff"/><path d="M201.69,267.5a5.7,5.7,0,0,1-4.45-1.36q-5.77-5-12.05-9.91Q179.73,252,168.4,243.6q-5.19-3.83-15.94-11l-6.14-4.19q-4-2.75-7.09-4.93-2.11-1.44-6.14-4.57l-12-9.49a32.58,32.58,0,0,0-3.15-2.06l-2.82-2a5.25,5.25,0,0,1-2.18-3.3,4.42,4.42,0,0,1,1-3.5q2.66-3.44,6.23-1.43a56.43,56.43,0,0,1,5.7,3.66,32.85,32.85,0,0,1,4,3.67,75.48,75.48,0,0,0,7.48,6.75l3.65,2.64q11.27,8,20.4,15.06l14.11,10.94q3.68,2.85,11.21,8.31l0.67-.62-3.52-5q-9.21-12.84-16.58-23.67a135.11,135.11,0,0,0-11.59-14.67q-3.63-4.14-5.68-6.87l-16.74-22.47a7.8,7.8,0,0,1-.75-3.81,4.59,4.59,0,0,1,1.19-2.88,6.72,6.72,0,0,1,4.07-1.21,5.64,5.64,0,0,1,4.06,1.25,108.14,108.14,0,0,1,8.1,7.42q14,12.55,17.69,15.61,15.52,12.79,23.46,18.95,3.8,2.94,12.37,8.64t11.28,7.6l6.3,4.12a6.57,6.57,0,0,1,3,4.22,5.63,5.63,0,0,1-1.24,4.54,4,4,0,0,1-2.63,1.56,4.5,4.5,0,0,1-3.26-.82l-1.07-.83-23.74-18.59-4.27-3.31q-6.35-4.54-19.34-14.23l-4.86-3.77-7.82-6.06a1.2,1.2,0,0,0-.58.5q-0.43.8,3.79,6.26t8.58,10.73q4.36,5.28,5.5,6.73,4.27,5,4.8,5.81,8.69,12.05,14.66,19.9t12.66,15.13q3.24,3.65.49,7.21A5.41,5.41,0,0,1,201.69,267.5Z" transform="translate(-51.18 -15.75)" style="fill:#fff"/><path d="M269.56,199.09a11.65,11.65,0,0,1-6.79-4.17A189,189,0,0,1,250,179.17l-5.67-7.38a13.71,13.71,0,0,0-6.37-4.75,8.92,8.92,0,0,0-7.49.12q19.07,24.72,27.82,36.9,2.45,3.41,0,5.16a5.33,5.33,0,0,1-2.3.92A3.81,3.81,0,0,1,251.5,208a130.72,130.72,0,0,0-9.27-15q-3.68-5.12-8.07-10.45-2-2.59-6-8.07-1.35-1.62-4-5.27Q209.34,149.64,201.47,140q-4.74-5.83-13-14.28a8,8,0,0,1-1.17-1.37q-2.71-3.77,0-6.66a3.55,3.55,0,0,1,3.73-1.11,7.41,7.41,0,0,1,3.86,2.67q1.26,1.5,2.91,3.54t2.53,3.26l3,3.93q5.32,6.89,7.69,10.18l15.59,21.68a95.83,95.83,0,0,0-3-9.84q-2.27-6.5-4.13-10.89-1-2.21-2.62-5.32T214.43,131a98,98,0,0,1-6.83-14.12,16.11,16.11,0,0,1,.1-12.45,7.78,7.78,0,0,1,2.26-3.29,8,8,0,0,1,2.75-1.06q2.56-.54,4.58,2.25,1.49,2.07-.63,4.52-4.26,4.36-1.69,11,1.6,4,3.76,8.57a53.63,53.63,0,0,1,3.53,8,53.62,53.62,0,0,0,5,11.89,42,42,0,0,1,3.06,6.57,12.71,12.71,0,0,1,.71,5.87q3.39-1.7,8.3.5a30.19,30.19,0,0,1,9.89,7.85q3.55,3.92,14.89,17.37l2.17,2.5q2.55,2.78,5.37,1.31a7.94,7.94,0,0,1,3.9-.49,4.34,4.34,0,0,1,2.65,1.88,5.26,5.26,0,0,1,1,4.19,5.84,5.84,0,0,1-2.49,3.73A8.78,8.78,0,0,1,269.56,199.09Z" transform="translate(-51.18 -15.75)" style="fill:#fff"/><path d="M307.8,176.88a5.7,5.7,0,0,1-3-3.57q-2.08-7.38-4.69-14.88-2.26-6.52-7.17-19.74-2.26-6-7.34-17.94l-2.86-6.87q-1.88-4.5-3.25-8-1-2.36-2.65-7.18L272,84.2a32.23,32.23,0,0,0-1.51-3.45l-1.27-3.21a5.24,5.24,0,0,1,0-4,4.42,4.42,0,0,1,2.75-2.38q4.11-1.43,6,2.2a56.29,56.29,0,0,1,2.78,6.18A32.86,32.86,0,0,1,282,84.83a75.38,75.38,0,0,0,2.59,9.74l1.62,4.2q5.09,12.84,8.88,23.75L301,139.39q1.52,4.39,4.86,13.08l0.9-.15-0.22-6.12q-0.71-15.79-1-28.88a135,135,0,0,0-1.7-18.62q-0.78-5.44-1-8.86l-1.77-28a7.79,7.79,0,0,1,1.45-3.6,4.6,4.6,0,0,1,2.56-1.76,6.72,6.72,0,0,1,4.07,1.21A5.63,5.63,0,0,1,311.88,61a108.09,108.09,0,0,1,2.74,10.64q4.87,18.16,6.3,22.74,6,19.19,9.32,28.68,1.57,4.54,5.65,14t5.3,12.53l3,6.89a6.57,6.57,0,0,1,.21,5.17,5.62,5.62,0,0,1-3.52,3.13,4,4,0,0,1-3.06-.13,4.5,4.5,0,0,1-2.28-2.46l-0.44-1.28-9.74-28.53-1.77-5.1q-2.84-7.27-8.44-22.48l-2-5.81-3.25-9.35a1.2,1.2,0,0,0-.76.1q-0.8.44-.24,7.31t1.33,13.67q0.77,6.8.94,8.65,0.84,6.54.85,7.49,0.7,14.84,1.42,24.67t2.35,19.59q0.72,4.83-3.53,6.31A5.42,5.42,0,0,1,307.8,176.88Z" transform="translate(-51.18 -15.75)" style="fill:#fff"/><path d="M382.11,157a5.7,5.7,0,0,1-1.75-4.31q0.28-7.66.1-15.61-0.15-6.9-.77-21-0.29-6.44-1.48-19.32-0.21-2.55-.61-7.41T377,80.75q-0.21-2.54-.32-7.64l-0.19-15.3a32.2,32.2,0,0,0-.38-3.74l-0.23-3.45A5.24,5.24,0,0,1,377,46.85a4.42,4.42,0,0,1,3.34-1.42q4.35-.1,5,3.94a56.75,56.75,0,0,1,.75,6.73,32.81,32.81,0,0,1-.33,5.41,75.67,75.67,0,0,0-.53,10.06l0.25,4.5q0.9,13.79,1.16,25.33l0.39,17.84q0.1,4.65.61,13.94l0.9,0.13,1.67-5.89q4.16-15.24,7.94-27.78a135.21,135.21,0,0,0,4.1-18.25q0.93-5.42,1.76-8.74L411,45.49a7.8,7.8,0,0,1,2.48-3,4.6,4.6,0,0,1,3-.89A6.71,6.71,0,0,1,420,44,5.63,5.63,0,0,1,421.55,48a108,108,0,0,1-.66,11q-0.93,18.78-1,23.58-0.16,20.11.07,30.16,0.11,4.8,1.08,15.05t1.2,13.55l0.77,7.48a6.57,6.57,0,0,1-1.39,5,5.63,5.63,0,0,1-4.31,1.9,4,4,0,0,1-2.87-1.06,4.5,4.5,0,0,1-1.42-3l0-1.35L412.5,120l-0.12-5.4q-0.47-7.79-1.13-24l-0.14-6.15-0.22-9.9a1.19,1.19,0,0,0-.75-0.13q-0.9.17-2.47,6.88t-2.93,13.42q-1.35,6.71-1.76,8.52-1.21,6.48-1.49,7.38-3.88,14.34-6.22,23.92T391.49,154q-0.79,4.82-5.29,4.92A5.41,5.41,0,0,1,382.11,157ZM387.72,31.3a11.66,11.66,0,0,1-3.63-8V22.83a3.44,3.44,0,0,1,2.62-3.51,4.72,4.72,0,0,1,3.08.08,3.84,3.84,0,0,1,2.36,1.75,3.31,3.31,0,0,1,.47,1.12,11.28,11.28,0,0,0,.33,1.12q0.95,2.23,2.6,2.19a2.73,2.73,0,0,0,1.93-.94,17.14,17.14,0,0,0,3.17-5.77q1.42-3.48,3.08-3.07a5.22,5.22,0,0,1,2.82,1.81,2.87,2.87,0,0,1,.74,2.76,52.27,52.27,0,0,1-2.55,6.81,14,14,0,0,1-3.65,4.73,13.91,13.91,0,0,1-2.59,1.48q-1.56.71-2.15,1A13,13,0,0,1,387.72,31.3Z" transform="translate(-51.18 -15.75)" style="fill:#fff"/><path d="M524,186.87a6.39,6.39,0,0,1,.52-3.59l11.34-26,2-3.7,6.31-12.44q9.63-19.5,14.34-29.39,1.46-3.29,7.1-14.73l2.79-5.31q0.73-1.48.36-2.08a10.54,10.54,0,0,0-2.66-2.07q-2.56-1.6-3.77-2.2a19.53,19.53,0,0,0-7.86-2q-1.74,1.49-4.79,7.34t-7.31,14.46q-1.13,2-8.56,17.69l-5.38,10.89a80.55,80.55,0,0,0-3.11,7.66q-2.25,5.91-3.71,8.88-0.93,1.88-2.66,4.71l-2.19,4.1-6.9,15.67a4,4,0,0,1-2.47,2.29,4.35,4.35,0,0,1-3.36-.65q-3.77-1.86-2-5.49,7.38-13.92,14.41-28.18l3.12-6.32q4.91-10.62,7.16-15.87,1.72-4.17,5.17-11.83Q536.74,97.82,546.37,77a5.64,5.64,0,0,1,2.7-2.93,4.9,4.9,0,0,1,3.79.28Q567,81,574.11,84.48a6.56,6.56,0,0,1,3.44,3.71,4.3,4.3,0,0,1-.78,4.46,50.55,50.55,0,0,0-4.19,7.13q-1.53,3.1-2.19,4.77-0.6,1.21-1.39,3t-2.06,4q-1.6,2.89-3.79,7.33-5,9.55-7.44,13.39-1.4,3.16-4.54,10.05t-4.28,9.85a37.65,37.65,0,0,0-3,5,95.25,95.25,0,0,0-3.91,9.95q-1.79,5-3,7.73l-1.46,3.29q-1.86,4.44-2.85,6.45l-1.59,2.89q-1.4,3.16-4.62,1.57Q524.32,188,524,186.87Z" transform="translate(-51.18 -15.75)" style="fill:#fff"/><path d="M561.27,210.06a6.07,6.07,0,0,1,1.58-3.3L579.63,188q12.36-13.5,19-21.08,22.95-26.36,32.22-42.95,4-1.12,6.56,1.14a20.94,20.94,0,0,1,6,8.52,22.17,22.17,0,0,1,1.33,10,34.17,34.17,0,0,1-8.39,18.55,41.48,41.48,0,0,1-16.82,12,33.75,33.75,0,0,1-19.58,1.25L590.19,187l-5,6.19q-1.56,2-4.71,5.64-6.26,7.88-10.4,12.63a7.51,7.51,0,0,1-3.86,2.61,4.33,4.33,0,0,1-3.91-1.22A3,3,0,0,1,561.27,210.06Zm57.28-43.4a32.68,32.68,0,0,0,11.11-8.53l0.1-.11a64,64,0,0,0,5.15-7.05,11.56,11.56,0,0,0,1.12-3.8c0.18-1.43.3-2.25,0.36-2.47q0.19-1.82-1.13-7.15l-1.07-4.71q-5,5.77-14.88,18.46l-14.88,18.46A37.89,37.89,0,0,0,618.55,166.66Z" transform="translate(-51.18 -15.75)" style="fill:#fff"/><path d="M602.77,253.95q-0.86-2.52,2-4.5l71.21-50.24a48.42,48.42,0,0,0,5.73-5.15,36,36,0,0,1,5.65-5.27l0.37-.26a33.82,33.82,0,0,1,6.57,0,33.8,33.8,0,0,0,3.69,4.19,30.39,30.39,0,0,1,3.69,4.19,8.58,8.58,0,0,1,1.52,4.62,4,4,0,0,1-1.46,3.78q-3.68,2.59-7.65-3l-1.21-1.72a13,13,0,0,0-1.09-1.8,5.16,5.16,0,0,0-1.07-1.26q-4.17,2.94-9.71,7.58l-3.26,2.67-6.57,5q-2.33,1.64-7.37,4.65l-7,4.6,1.58,1.46a18,18,0,0,1,3.59,3.53,4.28,4.28,0,0,1,.69,3.19,3.92,3.92,0,0,1-1.61,2.79,5.07,5.07,0,0,1-3.28.94,3.41,3.41,0,0,1-2.77-1.45L654,230.83l-1.12-1.59a4,4,0,0,0-2.67-2L612.35,254l5.21,6.6q4.93,7,1.74,9.23l-0.49.35a6.63,6.63,0,0,1-4.29-1,16,16,0,0,1-3.85-3l-3-4-2.68-3.8A14.72,14.72,0,0,1,602.77,253.95Z" transform="translate(-51.18 -15.75)" style="fill:#fff"/><path d="M631.78,343.64a4.71,4.71,0,0,1,2.6-2.29q2.4-.87,13.71-4a25.09,25.09,0,0,0-1.4-6.51,73.08,73.08,0,0,0-3.71-8.07l-1.65-3.23q-4.85-9.89-7.42-15.66-0.21-.57-3.13-7.32-1.41.51-4.07,1.55a45,45,0,0,1-4.4,1.51,5.56,5.56,0,0,1-3.35,0,2.92,2.92,0,0,1-1.92-1.78,4.68,4.68,0,0,1-.1-2A12.32,12.32,0,0,1,619.9,292a35.4,35.4,0,0,1,6-2.47l3.76-1.52a3.38,3.38,0,0,1,2.88.24,5.41,5.41,0,0,1,2.75,3q2.72,6.19,10.15,5.58a77.76,77.76,0,0,0,8.49-1,85.91,85.91,0,0,0,8.52-1.8q19.33-4.76,29.21-8.32,3.39-1.22,9.77-3.85,4.41-1.91,6.53-2.68,5.92-2.14,8.84-3.35,12-4.33,15.13-5.79a7.46,7.46,0,0,1,5.08-.72,5.43,5.43,0,0,1,3.61,3.16q3.15,6.52,3.66,7.93a18.67,18.67,0,0,1,1.18,5.47,7,7,0,0,0,.36,1.87,4.25,4.25,0,0,1,.29,1.25,8,8,0,0,1,.22,4.15q-0.47,1.36-3.71,2.54l-9.79,3.38q-3.25,1.17-4.75,1.87-15.23,6-46.84,18.68l-3.76,1.52q-7.09,2.88-14.35,6a72.41,72.41,0,0,0-10,4.88,36.36,36.36,0,0,1,2.17,8.23,3.53,3.53,0,0,1-2.53,4,4,4,0,0,1-1.18.27q-3,.6-6.51,1.4t-6,1.53a17.39,17.39,0,0,0-2.73.83,5.9,5.9,0,0,1-3.19.44,2.9,2.9,0,0,1-1.88-2.11A3.59,3.59,0,0,1,631.78,343.64Zm14-29.06,4.33,9.76q3.2-.84,4.62-1.35,2-.71,6.67-2.73,1-.36,3.17-1.38t4-1.69l22.07-9.1,14-5,31.83-13.42a12.35,12.35,0,0,0,3.37-1.7,14.07,14.07,0,0,0-1.13-5.33,42.38,42.38,0,0,0-2.57-5.77l-22.15,8-10.72,3.88q-19.34,6.51-34.51,10.88a132.85,132.85,0,0,1-15,3.44q-8,1.36-12.32,1.66Q644.18,310.68,645.76,314.58Z" transform="translate(-51.18 -15.75)" style="fill:#fff"/><path d="M650.63,373.29q0.53-2.61,4-2.89l86.85-7.24a48.44,48.44,0,0,0,7.55-1.53,36,36,0,0,1,7.54-1.68l0.45,0a33.78,33.78,0,0,1,5.69,3.29,33.94,33.94,0,0,0,1.06,5.48,30.15,30.15,0,0,1,1.06,5.48,8.61,8.61,0,0,1-1,4.75,4,4,0,0,1-3.18,2.52q-4.48.37-5.06-6.5l-0.17-2.09a12.93,12.93,0,0,0,0-2.11,5.2,5.2,0,0,0-.29-1.63q-5.08.42-12.21,1.62l-4.16.65-8.2,1q-2.84.24-8.71,0.27l-8.39.4,0.62,2.06a18,18,0,0,1,1.31,4.86,4.28,4.28,0,0,1-1,3.09,3.93,3.93,0,0,1-2.8,1.59,5.06,5.06,0,0,1-3.31-.85,3.41,3.41,0,0,1-1.65-2.65v-1.81l-0.16-1.94a4,4,0,0,0-1.31-3.05l-46.19,3.85L660,386.5q0.71,8.52-3.18,8.84l-0.6,0a6.63,6.63,0,0,1-3.19-3,16,16,0,0,1-1.81-4.52l-0.56-4.92-0.39-4.63A14.74,14.74,0,0,1,650.63,373.29Z" transform="translate(-51.18 -15.75)" style="fill:#fff"/><path d="M648.9,426a10.24,10.24,0,0,1,2.65-4.39,2,2,0,0,1,1.93-.55,1.76,1.76,0,0,1,1.52,1.66,8.4,8.4,0,0,0,2.84,5.64,22.11,22.11,0,0,0,5,3.07l3.8,1.7q9.09,4.44,24.13,7.24,1.92,0.36,6,1.42,3.78,1,5.84,1.39,5.6,1,16.57,2.78l8.29,1.39q15.39,2.56,25.86,4.51,1.47,0.28,4.09,1t3.09,1.42a2.82,2.82,0,0,1,.44,1.76,13.08,13.08,0,0,1-.1,1.35q0,0.62.19,3.47a23.74,23.74,0,0,1-.37,5.65,12.43,12.43,0,0,1-.56,2.18A24.64,24.64,0,0,0,758,474.8q-1.29,4.87-1.4,5.46c-0.07.39-.26,0.56-0.55,0.51a13.91,13.91,0,0,1-2.62.12,83.66,83.66,0,0,1-8.91-2.12l-5.25-1.28q-5.61-1-13.85-1.82-9.58-1-27.43-3.43-15.1-2.51-22.53-3.59L656.11,466l-3.92-.27q-2.71-.2-3.89-0.42a4.76,4.76,0,0,1-2.25-1,3.35,3.35,0,0,1-1.14-2,6.39,6.39,0,0,1,.12-2.27,4.79,4.79,0,0,1,1.78-3,5,5,0,0,1,4.08-.61q8.23,1.68,24.6,4.74,24.48,4.56,47.3,6.52,4.8,0.44,15.46,2.19t14.49,2.47l2.11-12.12a11.19,11.19,0,0,0-2.95-.55c-2-.27-3.17-0.44-3.57-0.51q-6.46-1.36-21.5-4.16l-8.55-1.59q-4.45-.68-7.76-1.37t-5.52-1.1q-4.55-1-13.39-2.65a198.54,198.54,0,0,1-22.46-5.56,97.93,97.93,0,0,1-9.21-3.39,27.56,27.56,0,0,1-6.63-4.13,12.47,12.47,0,0,1-4.45-7.24A8.27,8.27,0,0,1,648.9,426Z" transform="translate(-51.18 -15.75)" style="fill:#fff"/></svg>